<svg width="20" height="20" viewBox="0 0 20 20" fill="none" xmlns="http:/www.w3.org/2000/svg">
<mask id="mask0_984_656" style="mask-type:alpha" maskUnits="userSpaceOnUse" x="0" y="0" width="20" height="20">
<rect width="20" height="20" fill="#D9D9D9"/>
</mask>
<g mask="url(#mask0_984_656)">
<path d="M1.66666 14.9999V14.3333C1.66666 13.861 1.78471 13.427 2.02082 13.0312C2.25693 12.6353 2.58332 12.3333 2.99999 12.1249C3.79166 11.7221 4.61457 11.4027 5.46874 11.1666C6.32291 10.9305 7.19443 10.8124 8.08332 10.8124C8.27777 10.8124 8.43055 10.8992 8.54166 11.0728C8.65277 11.2464 8.6736 11.4305 8.60416 11.6249C8.52082 11.9166 8.45832 12.2083 8.41666 12.4999C8.37499 12.7916 8.35416 13.0902 8.35416 13.3958C8.35416 13.7985 8.39582 14.1874 8.47916 14.5624C8.56249 14.9374 8.68055 15.3055 8.83332 15.6666C8.94444 15.9027 8.93402 16.1284 8.80207 16.3437C8.67013 16.5589 8.4861 16.6666 8.24999 16.6666H3.33332C2.87499 16.6666 2.48263 16.5034 2.15624 16.177C1.82985 15.8506 1.66666 15.4583 1.66666 14.9999ZM14.1667 14.9999C14.625 14.9999 15.0174 14.8367 15.3437 14.5103C15.6701 14.1839 15.8333 13.7916 15.8333 13.3333C15.8333 12.8749 15.6701 12.4826 15.3437 12.1562C15.0174 11.8298 14.625 11.6666 14.1667 11.6666C13.7083 11.6666 13.316 11.8298 12.9896 12.1562C12.6632 12.4826 12.5 12.8749 12.5 13.3333C12.5 13.7916 12.6632 14.1839 12.9896 14.5103C13.316 14.8367 13.7083 14.9999 14.1667 14.9999ZM8.33332 9.99992C7.41666 9.99992 6.63193 9.67353 5.97916 9.02075C5.32638 8.36797 4.99999 7.58325 4.99999 6.66659C4.99999 5.74992 5.32638 4.9652 5.97916 4.31242C6.63193 3.65964 7.41666 3.33325 8.33332 3.33325C9.24999 3.33325 10.0347 3.65964 10.6875 4.31242C11.3403 4.9652 11.6667 5.74992 11.6667 6.66659C11.6667 7.58325 11.3403 8.36797 10.6875 9.02075C10.0347 9.67353 9.24999 9.99992 8.33332 9.99992ZM13.2083 16.8333L13.0833 16.2499C12.9167 16.1805 12.7604 16.1076 12.6146 16.0312C12.4687 15.9548 12.3194 15.861 12.1667 15.7499L11.5625 15.9374C11.3819 15.993 11.2049 15.986 11.0312 15.9166C10.8576 15.8471 10.7222 15.736 10.625 15.5833L10.4583 15.2916C10.3611 15.1249 10.3264 14.9444 10.3542 14.7499C10.3819 14.5555 10.4722 14.3958 10.625 14.2708L11.0833 13.8749C11.0555 13.6805 11.0417 13.4999 11.0417 13.3333C11.0417 13.1666 11.0555 12.986 11.0833 12.7916L10.625 12.3958C10.4722 12.2708 10.3819 12.1145 10.3542 11.927C10.3264 11.7395 10.3611 11.5624 10.4583 11.3958L10.6458 11.0833C10.743 10.9305 10.875 10.8194 11.0417 10.7499C11.2083 10.6805 11.3819 10.6735 11.5625 10.7291L12.1667 10.9166C12.3194 10.8055 12.4687 10.7117 12.6146 10.6353C12.7604 10.5589 12.9167 10.486 13.0833 10.4166L13.2083 9.81242C13.25 9.61797 13.3437 9.46172 13.4896 9.34367C13.6354 9.22561 13.8055 9.16659 14 9.16659H14.3333C14.5278 9.16659 14.6979 9.22909 14.8437 9.35409C14.9896 9.47909 15.0833 9.63881 15.125 9.83325L15.25 10.4166C15.4167 10.486 15.5729 10.5624 15.7187 10.6458C15.8646 10.7291 16.0139 10.8333 16.1667 10.9583L16.7292 10.7708C16.9236 10.7013 17.1111 10.7013 17.2917 10.7708C17.4722 10.8402 17.6111 10.9583 17.7083 11.1249L17.875 11.4166C17.9722 11.5833 18.0069 11.7638 17.9792 11.9583C17.9514 12.1527 17.8611 12.3124 17.7083 12.4374L17.25 12.8333C17.2778 12.9999 17.2917 13.1735 17.2917 13.3541C17.2917 13.5346 17.2778 13.7083 17.25 13.8749L17.7083 14.2708C17.8611 14.3958 17.9514 14.552 17.9792 14.7395C18.0069 14.927 17.9722 15.1041 17.875 15.2708L17.6875 15.5833C17.5903 15.736 17.4583 15.8471 17.2917 15.9166C17.125 15.986 16.9514 15.993 16.7708 15.9374L16.1667 15.7499C16.0139 15.861 15.8646 15.9548 15.7187 16.0312C15.5729 16.1076 15.4167 16.1805 15.25 16.2499L15.125 16.8541C15.0833 17.0485 14.9896 17.2048 14.8437 17.3228C14.6979 17.4409 14.5278 17.4999 14.3333 17.4999H14C13.8055 17.4999 13.6354 17.4374 13.4896 17.3124C13.3437 17.1874 13.25 17.0277 13.2083 16.8333Z" fill="#B3B3B3"/>
</g>
</svg>
