<svg width="20" height="20" viewBox="0 0 20 20" fill="none" xmlns="http:/www.w3.org/2000/svg">
<mask id="mask0_528_879" style="mask-type:alpha" maskUnits="userSpaceOnUse" x="0" y="0" width="20" height="20">
<rect width="20" height="20" fill="#D9D9D9"/>
</mask>
<g mask="url(#mask0_528_879)">
<path d="M9.16663 10.8333V13.3333C9.16663 13.5694 9.24649 13.7674 9.40621 13.9271C9.56593 14.0868 9.76385 14.1667 9.99996 14.1667C10.2361 14.1667 10.434 14.0868 10.5937 13.9271C10.7534 13.7674 10.8333 13.5694 10.8333 13.3333V10.8333H13.3333C13.5694 10.8333 13.7673 10.7535 13.927 10.5937C14.0868 10.434 14.1666 10.2361 14.1666 9.99999C14.1666 9.76388 14.0868 9.56596 13.927 9.40624C13.7673 9.24652 13.5694 9.16666 13.3333 9.16666H10.8333V6.66666C10.8333 6.43055 10.7534 6.23263 10.5937 6.07291C10.434 5.91318 10.2361 5.83332 9.99996 5.83332C9.76385 5.83332 9.56593 5.91318 9.40621 6.07291C9.24649 6.23263 9.16663 6.43055 9.16663 6.66666V9.16666H6.66663C6.43052 9.16666 6.2326 9.24652 6.07288 9.40624C5.91315 9.56596 5.83329 9.76388 5.83329 9.99999C5.83329 10.2361 5.91315 10.434 6.07288 10.5937C6.2326 10.7535 6.43052 10.8333 6.66663 10.8333H9.16663ZM9.99996 18.3333C8.84718 18.3333 7.76385 18.1146 6.74996 17.6771C5.73607 17.2396 4.85413 16.6458 4.10413 15.8958C3.35413 15.1458 2.76038 14.2639 2.32288 13.25C1.88538 12.2361 1.66663 11.1528 1.66663 9.99999C1.66663 8.84721 1.88538 7.76388 2.32288 6.74999C2.76038 5.7361 3.35413 4.85416 4.10413 4.10416C4.85413 3.35416 5.73607 2.76041 6.74996 2.32291C7.76385 1.88541 8.84718 1.66666 9.99996 1.66666C11.1527 1.66666 12.2361 1.88541 13.25 2.32291C14.2638 2.76041 15.1458 3.35416 15.8958 4.10416C16.6458 4.85416 17.2395 5.7361 17.677 6.74999C18.1145 7.76388 18.3333 8.84721 18.3333 9.99999C18.3333 11.1528 18.1145 12.2361 17.677 13.25C17.2395 14.2639 16.6458 15.1458 15.8958 15.8958C15.1458 16.6458 14.2638 17.2396 13.25 17.6771C12.2361 18.1146 11.1527 18.3333 9.99996 18.3333Z" fill="#B3B3B3"/>
</g>
</svg>
