<svg width="20" height="20" viewBox="0 0 20 20" fill="none" xmlns="http:/www.w3.org/2000/svg">
<mask id="mask0_528_872" style="mask-type:alpha" maskUnits="userSpaceOnUse" x="0" y="0" width="20" height="20">
<rect width="20" height="20" fill="#D9D9D9"/>
</mask>
<g mask="url(#mask0_528_872)">
<path d="M1.66663 15V14.3333C1.66663 13.8611 1.78468 13.4271 2.02079 13.0313C2.2569 12.6354 2.58329 12.3333 2.99996 12.125C3.79163 11.7222 4.61454 11.4028 5.46871 11.1667C6.32288 10.9306 7.1944 10.8125 8.08329 10.8125C8.27774 10.8125 8.43052 10.8993 8.54163 11.0729C8.65274 11.2465 8.67357 11.4306 8.60413 11.625C8.52079 11.9167 8.45829 12.2083 8.41663 12.5C8.37496 12.7917 8.35413 13.0903 8.35413 13.3958C8.35413 13.7986 8.39579 14.1875 8.47913 14.5625C8.56246 14.9375 8.68052 15.3056 8.83329 15.6667C8.9444 15.9028 8.93399 16.1285 8.80204 16.3438C8.6701 16.559 8.48607 16.6667 8.24996 16.6667H3.33329C2.87496 16.6667 2.4826 16.5035 2.15621 16.1771C1.82982 15.8507 1.66663 15.4583 1.66663 15ZM14.1666 15C14.625 15 15.0173 14.8368 15.3437 14.5104C15.6701 14.184 15.8333 13.7917 15.8333 13.3333C15.8333 12.875 15.6701 12.4826 15.3437 12.1563C15.0173 11.8299 14.625 11.6667 14.1666 11.6667C13.7083 11.6667 13.3159 11.8299 12.9895 12.1563C12.6632 12.4826 12.5 12.875 12.5 13.3333C12.5 13.7917 12.6632 14.184 12.9895 14.5104C13.3159 14.8368 13.7083 15 14.1666 15ZM8.33329 10C7.41663 10 6.6319 9.67362 5.97913 9.02084C5.32635 8.36807 4.99996 7.58334 4.99996 6.66668C4.99996 5.75001 5.32635 4.96529 5.97913 4.31251C6.6319 3.65973 7.41663 3.33334 8.33329 3.33334C9.24996 3.33334 10.0347 3.65973 10.6875 4.31251C11.3402 4.96529 11.6666 5.75001 11.6666 6.66668C11.6666 7.58334 11.3402 8.36807 10.6875 9.02084C10.0347 9.67362 9.24996 10 8.33329 10ZM13.2083 16.8333L13.0833 16.25C12.9166 16.1806 12.7604 16.1076 12.6145 16.0313C12.4687 15.9549 12.3194 15.8611 12.1666 15.75L11.5625 15.9375C11.3819 15.9931 11.2048 15.9861 11.0312 15.9167C10.8576 15.8472 10.7222 15.7361 10.625 15.5833L10.4583 15.2917C10.3611 15.125 10.3263 14.9445 10.3541 14.75C10.3819 14.5556 10.4722 14.3958 10.625 14.2708L11.0833 13.875C11.0555 13.6806 11.0416 13.5 11.0416 13.3333C11.0416 13.1667 11.0555 12.9861 11.0833 12.7917L10.625 12.3958C10.4722 12.2708 10.3819 12.1146 10.3541 11.9271C10.3263 11.7396 10.3611 11.5625 10.4583 11.3958L10.6458 11.0833C10.743 10.9306 10.875 10.8195 11.0416 10.75C11.2083 10.6806 11.3819 10.6736 11.5625 10.7292L12.1666 10.9167C12.3194 10.8056 12.4687 10.7118 12.6145 10.6354C12.7604 10.559 12.9166 10.4861 13.0833 10.4167L13.2083 9.81251C13.25 9.61807 13.3437 9.46182 13.4895 9.34376C13.6354 9.22571 13.8055 9.16668 14 9.16668H14.3333C14.5277 9.16668 14.6979 9.22918 14.8437 9.35418C14.9895 9.47918 15.0833 9.6389 15.125 9.83334L15.25 10.4167C15.4166 10.4861 15.5729 10.5625 15.7187 10.6458C15.8645 10.7292 16.0138 10.8333 16.1666 10.9583L16.7291 10.7708C16.9236 10.7014 17.1111 10.7014 17.2916 10.7708C17.4722 10.8403 17.6111 10.9583 17.7083 11.125L17.875 11.4167C17.9722 11.5833 18.0069 11.7639 17.9791 11.9583C17.9513 12.1528 17.8611 12.3125 17.7083 12.4375L17.25 12.8333C17.2777 13 17.2916 13.1736 17.2916 13.3542C17.2916 13.5347 17.2777 13.7083 17.25 13.875L17.7083 14.2708C17.8611 14.3958 17.9513 14.5521 17.9791 14.7396C18.0069 14.9271 17.9722 15.1042 17.875 15.2708L17.6875 15.5833C17.5902 15.7361 17.4583 15.8472 17.2916 15.9167C17.125 15.9861 16.9513 15.9931 16.7708 15.9375L16.1666 15.75C16.0138 15.8611 15.8645 15.9549 15.7187 16.0313C15.5729 16.1076 15.4166 16.1806 15.25 16.25L15.125 16.8542C15.0833 17.0486 14.9895 17.2049 14.8437 17.3229C14.6979 17.441 14.5277 17.5 14.3333 17.5H14C13.8055 17.5 13.6354 17.4375 13.4895 17.3125C13.3437 17.1875 13.25 17.0278 13.2083 16.8333Z" fill="#B3B3B3"/>
</g>
</svg>
