<svg width="20" height="20" viewBox="0 0 20 20" fill="none" xmlns="http:/www.w3.org/2000/svg">
<g clip-path="url(#clip0_984_647)">
<path d="M18.3333 5.81667V13.3333C18.3333 14.25 17.5833 15 16.6667 15H4.99999L1.66666 18.3333V3.33333C1.66666 2.41667 2.41666 1.66667 3.33332 1.66667H11.75C11.7 1.93333 11.6667 2.21667 11.6667 2.5C11.6667 4.8 13.5333 6.66667 15.8333 6.66667C16.775 6.66667 17.6333 6.34167 18.3333 5.81667ZM13.3333 2.5C13.3333 3.88333 14.45 5 15.8333 5C17.2167 5 18.3333 3.88333 18.3333 2.5C18.3333 1.11667 17.2167 0 15.8333 0C14.45 0 13.3333 1.11667 13.3333 2.5Z" fill="#B3B3B3"/>
</g>
<defs>
<clipPath id="clip0_984_647">
<rect width="20" height="20" fill="white"/>
</clipPath>
</defs>
</svg>
