<svg width="20" height="20" viewBox="0 0 20 20" fill="none" xmlns="http:/www.w3.org/2000/svg">
<path d="M3.33329 16.6667C2.87496 16.6667 2.4826 16.5035 2.15621 16.1771C1.82982 15.8507 1.66663 15.4583 1.66663 15V12.1875C1.66663 12.0347 1.71524 11.9028 1.81246 11.7917C1.90968 11.6806 2.03468 11.6111 2.18746 11.5833C2.52079 11.4722 2.7951 11.2708 3.01038 10.9792C3.22565 10.6875 3.33329 10.3611 3.33329 10C3.33329 9.6389 3.22565 9.31251 3.01038 9.02084C2.7951 8.72918 2.52079 8.52779 2.18746 8.41668C2.03468 8.3889 1.90968 8.31945 1.81246 8.20834C1.71524 8.09723 1.66663 7.96529 1.66663 7.81251V5.00001C1.66663 4.54168 1.82982 4.14932 2.15621 3.82293C2.4826 3.49654 2.87496 3.33334 3.33329 3.33334H16.6666C17.125 3.33334 17.5173 3.49654 17.8437 3.82293C18.1701 4.14932 18.3333 4.54168 18.3333 5.00001V7.81251C18.3333 7.96529 18.2847 8.09723 18.1875 8.20834C18.0902 8.31945 17.9652 8.3889 17.8125 8.41668C17.4791 8.52779 17.2048 8.72918 16.9895 9.02084C16.7743 9.31251 16.6666 9.6389 16.6666 10C16.6666 10.3611 16.7743 10.6875 16.9895 10.9792C17.2048 11.2708 17.4791 11.4722 17.8125 11.5833C17.9652 11.6111 18.0902 11.6806 18.1875 11.7917C18.2847 11.9028 18.3333 12.0347 18.3333 12.1875V15C18.3333 15.4583 18.1701 15.8507 17.8437 16.1771C17.5173 16.5035 17.125 16.6667 16.6666 16.6667H3.33329ZM9.99996 14.1667C10.2361 14.1667 10.434 14.0868 10.5937 13.9271C10.7534 13.7674 10.8333 13.5695 10.8333 13.3333C10.8333 13.0972 10.7534 12.8993 10.5937 12.7396C10.434 12.5799 10.2361 12.5 9.99996 12.5C9.76385 12.5 9.56593 12.5799 9.40621 12.7396C9.24649 12.8993 9.16663 13.0972 9.16663 13.3333C9.16663 13.5695 9.24649 13.7674 9.40621 13.9271C9.56593 14.0868 9.76385 14.1667 9.99996 14.1667ZM9.99996 10.8333C10.2361 10.8333 10.434 10.7535 10.5937 10.5938C10.7534 10.434 10.8333 10.2361 10.8333 10C10.8333 9.7639 10.7534 9.56598 10.5937 9.40626C10.434 9.24654 10.2361 9.16668 9.99996 9.16668C9.76385 9.16668 9.56593 9.24654 9.40621 9.40626C9.24649 9.56598 9.16663 9.7639 9.16663 10C9.16663 10.2361 9.24649 10.434 9.40621 10.5938C9.56593 10.7535 9.76385 10.8333 9.99996 10.8333ZM9.99996 7.50001C10.2361 7.50001 10.434 7.42015 10.5937 7.26043C10.7534 7.1007 10.8333 6.90279 10.8333 6.66668C10.8333 6.43057 10.7534 6.23265 10.5937 6.07293C10.434 5.9132 10.2361 5.83334 9.99996 5.83334C9.76385 5.83334 9.56593 5.9132 9.40621 6.07293C9.24649 6.23265 9.16663 6.43057 9.16663 6.66668C9.16663 6.90279 9.24649 7.1007 9.40621 7.26043C9.56593 7.42015 9.76385 7.50001 9.99996 7.50001Z" fill="#B3B3B3"/>
</svg>
