<svg width="22" height="17" viewBox="0 0 22 17" fill="none" xmlns="http://www.w3.org/2000/svg">
<path d="M0 13.4473C0 12.8806 0.145833 12.3598 0.4375 11.8848C0.729167 11.4098 1.11667 11.0473 1.6 10.7973C2.63333 10.2806 3.68333 9.89315 4.75 9.63481C5.81667 9.37648 6.9 9.24731 8 9.24731C9.1 9.24731 10.1833 9.37648 11.25 9.63481C12.3167 9.89315 13.3667 10.2806 14.4 10.7973C14.8833 11.0473 15.2708 11.4098 15.5625 11.8848C15.8542 12.3598 16 12.8806 16 13.4473V14.2473C16 14.7973 15.8042 15.2681 15.4125 15.6598C15.0208 16.0515 14.55 16.2473 14 16.2473H2C1.45 16.2473 0.979167 16.0515 0.5875 15.6598C0.195833 15.2681 0 14.7973 0 14.2473V13.4473ZM17.45 16.2473C17.6333 15.9473 17.7708 15.6265 17.8625 15.2848C17.9542 14.9431 18 14.5973 18 14.2473V13.2473C18 12.514 17.7958 11.8098 17.3875 11.1348C16.9792 10.4598 16.4 9.88065 15.65 9.39732C16.5 9.49732 17.3 9.66815 18.05 9.90981C18.8 10.1515 19.5 10.4473 20.15 10.7973C20.75 11.1306 21.2083 11.5015 21.525 11.9098C21.8417 12.3181 22 12.764 22 13.2473V14.2473C22 14.7973 21.8042 15.2681 21.4125 15.6598C21.0208 16.0515 20.55 16.2473 20 16.2473H17.45ZM8 8.24731C6.9 8.24731 5.95833 7.85565 5.175 7.07231C4.39167 6.28898 4 5.34731 4 4.24731C4 3.14731 4.39167 2.20565 5.175 1.42231C5.95833 0.638981 6.9 0.247314 8 0.247314C9.1 0.247314 10.0417 0.638981 10.825 1.42231C11.6083 2.20565 12 3.14731 12 4.24731C12 5.34731 11.6083 6.28898 10.825 7.07231C10.0417 7.85565 9.1 8.24731 8 8.24731ZM18 4.24731C18 5.34731 17.6083 6.28898 16.825 7.07231C16.0417 7.85565 15.1 8.24731 14 8.24731C13.8167 8.24731 13.5833 8.22648 13.3 8.18481C13.0167 8.14315 12.7833 8.09731 12.6 8.04731C13.05 7.51398 13.3958 6.92231 13.6375 6.27231C13.8792 5.62231 14 4.94731 14 4.24731C14 3.54731 13.8792 2.87231 13.6375 2.22231C13.3958 1.57231 13.05 0.980648 12.6 0.447314C12.8333 0.363981 13.0667 0.309814 13.3 0.284814C13.5333 0.259814 13.7667 0.247314 14 0.247314C15.1 0.247314 16.0417 0.638981 16.825 1.42231C17.6083 2.20565 18 3.14731 18 4.24731Z" fill="#B3B3B3"/>
</svg>
